<svg width="291" height="269" viewBox="0 0 291 269" fill="none" xmlns="http://www.w3.org/2000/svg">
<g opacity="0.3">
<path d="M54.7369 44.4652C28.0115 63.1882 15.9757 90.676 11.9716 128.704C8.59599 160.749 16.6625 196.164 64.1304 206.25C156.5 225.88 243.002 231.473 265.083 178.511C287.164 125.549 289.743 60.6099 233.504 28.9491C200.772 10.523 102.816 10.7791 54.7369 44.4652Z" fill="white"/>
</g>
<path d="M175.461 86.625C175.461 86.625 174.763 86.9509 173.541 87.562C164.694 91.9619 128.401 111.052 130.263 127.231C132.382 145.646 178.808 134.087 178.808 134.087L181.59 101.891C181.59 101.891 154.736 118.874 155.889 112.326L178.802 92.3228" fill="#68E1FD"/>
<g opacity="0.46">
<path d="M175.461 86.6289C175.461 86.6289 174.763 86.9548 173.541 87.5659C164.694 91.9658 128.401 111.055 130.263 127.235C132.382 145.65 178.808 134.091 178.808 134.091L181.59 101.895C181.59 101.895 154.736 118.878 155.889 112.33L178.802 92.3267" fill="white"/>
</g>
<path d="M180.659 83.2361C181.252 83.5271 181.782 83.9519 182.172 84.4816C182.94 85.5292 183.167 86.955 182.76 88.1889C182.277 89.6381 181.043 90.6973 179.809 91.6052C179.565 91.7856 179.309 91.9719 179.018 92.0592C178.511 92.2163 177.947 92.0767 177.493 91.7915C177.039 91.5063 176.69 91.0931 176.358 90.6798C175.322 89.3645 175.107 87.473 175.566 85.8958C175.985 84.4524 177.178 82.8461 178.802 82.817C179.442 82.8054 180.077 82.9567 180.653 83.2361H180.659Z" fill="#F4A28C"/>
<path d="M188.277 70.1293C188.749 72.6377 189.179 75.4255 188.894 77.9805C188.708 79.6566 187.911 81.1 187.34 82.6656C185.594 87.4438 184.419 92.3035 186.269 97.268C187.608 100.853 190.425 103.92 194.01 105.265C196.582 106.225 199.399 106.283 202.146 106.277C205.795 106.266 209.538 106.149 212.942 104.828C216.347 103.507 219.403 100.748 220.124 97.169C220.299 96.3018 220.328 95.3706 219.979 94.5558C219.577 93.6305 218.745 92.9728 217.936 92.3675C215.259 90.3654 212.477 88.4739 210.032 86.1983C205.883 82.328 204.521 77.9223 202.693 72.7425C202.204 71.3224 201.698 69.879 200.837 68.6452C198.776 65.7061 194.877 64.449 191.309 64.8273C189.913 64.9728 188.248 65.6654 188.155 67.068" fill="#24285B"/>
<path d="M205.847 99.7362C204.276 97.8505 201.011 92.9094 200.935 84.418L194.173 85.6285C194.173 85.6285 193.107 98.4209 190.151 101.511L190.221 101.575L205.853 99.7304L205.847 99.7362Z" fill="#F4A28C"/>
<g opacity="0.09">
<path d="M205.848 99.744C204.276 97.8583 201.011 92.9172 200.936 84.4258L194.173 85.6363C194.173 85.6363 193.108 98.4287 190.151 101.519L190.221 101.583L205.853 99.7382L205.848 99.744Z" fill="#000001"/>
</g>
<path d="M189.04 75.5832C189.04 75.5832 189.273 90.8665 197.31 91.3961C205.347 91.9257 202.507 74.6462 202.507 74.6462C202.507 74.6462 201.39 65.5495 196.646 64.9559C191.903 64.3622 186.811 64.758 189.046 75.5773L189.04 75.5832Z" fill="#F4A28C"/>
<path d="M189.33 79.1085C189.33 79.1085 185.123 78.317 185.576 80.4005C186.03 82.4841 185.664 85.365 190.238 83.5841L189.33 79.1143V79.1085Z" fill="#F4A28C"/>
<path d="M202.6 77.3268C202.6 77.3268 206.569 75.7146 206.54 77.8448C206.511 79.9749 207.442 82.7277 202.6 81.8897V77.3268Z" fill="#F4A28C"/>
<path d="M189.348 78.9152C189.779 78.9443 190.209 78.729 190.576 78.4787C193.02 76.7734 193.981 73.2 193.562 70.3773C194.697 72.4957 195.965 74.5793 197.385 76.5174C198.177 77.5999 199.108 78.9676 200.313 79.6427C202.111 80.6554 203.357 78.4321 203.59 76.8375C204.003 74.0439 203.84 71.2095 203.328 68.4276C202.868 65.9424 202.041 63.2419 199.871 61.9499C199.073 61.4727 198.154 61.234 197.234 61.0827C196.187 60.9081 195.092 60.8383 194.068 61.1176C193.044 61.397 192.083 62.0721 191.664 63.0499C191.92 62.4562 189.115 63.0266 188.813 63.1546C186.793 64.0335 186.595 67.7001 186.485 69.5916C186.333 72.3095 186.822 75.0682 187.945 77.5533C188.207 78.1295 188.574 78.7464 189.185 78.8803C189.237 78.8919 189.29 78.8977 189.342 78.9036L189.348 78.9152Z" fill="#24285B"/>
<path d="M215.736 115.24C215.736 115.24 256.807 102.628 262.435 129.865C268.063 157.103 256.551 187.483 256.551 187.483H189.72L215.736 115.24Z" fill="#FFD200"/>
<path d="M224.216 152.479C221.067 163.532 217.371 174.438 214.333 182.889C210.905 192.44 208.321 198.876 208.321 198.876L169.374 196.345C169.374 196.345 170.043 192.771 169.508 186.73C169.211 183.465 173.692 179.484 172.4 174.962C171.644 172.297 166.766 157.997 165.492 154.988C158.566 138.61 163.769 114.37 175.456 105.559C187.142 96.7471 209.939 93.226 226.602 102.573C234.715 107.13 230.583 130.113 224.21 152.479H224.216Z" fill="#68E1FD"/>
<path d="M271.701 193.57H11.2966V274.451H271.701V193.57Z" fill="#A5A5A5"/>
<path d="M271.701 187.488H11.2966V198.616H271.701V187.488Z" fill="#E6E6E6"/>
<path d="M175.461 181.315C175.461 181.315 153.066 174.826 155.755 187.485H175.461V181.315Z" fill="#F4A28C"/>
<path d="M169.374 184.008H127.004V187.488H169.374V184.008Z" fill="#E6E6E6"/>
<path d="M95.6515 114.969H30.6479V164.183H95.6515V114.969Z" fill="#E6E6E6"/>
<g opacity="0.08">
<path d="M226.852 158.713L220.898 182.33L214.333 182.895L169.508 186.73C169.211 183.465 173.692 179.484 172.4 174.962C188.551 172.215 202.647 164.527 195.436 143.226C187.486 119.759 204.98 107.008 204.98 107.008L224.221 152.479L226.858 158.707L226.852 158.713Z" fill="#000001"/>
</g>
<path d="M57.1931 153.621L50.1975 187.488H84.7858V182.989L67.4946 181.883L66.0221 153.621H57.1931Z" fill="#A5A5A5"/>
<path d="M204.294 109.765C205.202 102.46 212.319 97.5542 219.466 99.3293C228.965 101.686 240.896 109.159 242.677 131.549C245.703 169.548 234.942 187.485 234.942 187.485H175.461V179.965L216.783 174.919C216.783 174.919 201.034 135.943 204.294 109.765Z" fill="#68E1FD"/>
<g opacity="0.46">
<path d="M204.294 109.765C205.202 102.46 212.319 97.5542 219.466 99.3293C228.965 101.686 240.896 109.159 242.677 131.549C245.703 169.548 234.942 187.485 234.942 187.485H175.461V179.965L216.783 174.919C216.783 174.919 201.034 135.943 204.294 109.765Z" fill="white"/>
</g>
<g opacity="0.58">
<path d="M26.0156 179.972C26.0156 179.972 20.085 178.354 18.793 172.831C18.793 172.831 27.9827 170.974 28.2446 180.461L26.0156 179.972Z" fill="#68E1FD"/>
</g>
<g opacity="0.73">
<path d="M26.7426 179.375C26.7426 179.375 22.5988 172.822 26.2479 166.699C26.2479 166.699 33.2378 171.14 30.1299 179.393L26.7426 179.381V179.375Z" fill="#68E1FD"/>
</g>
<path d="M27.8137 179.39C27.8137 179.39 30.002 172.47 36.6252 171.16C36.6252 171.16 37.8649 175.653 32.3417 179.407L27.8195 179.39H27.8137Z" fill="#68E1FD"/>
<path d="M23.5127 179.227L24.7116 187.456L32.2893 187.485L33.4009 179.267L23.5127 179.227Z" fill="#24285B"/>
<path d="M120.695 183.426C119.636 183.426 118.588 183.164 117.651 182.559L118.07 181.913C120.631 183.572 124.211 182.268 126.055 180.109C128.133 177.67 128.768 174.225 129.088 171.501C129.158 170.89 129.222 170.279 129.28 169.668C129.536 167.13 129.804 164.511 130.752 162.09C132.196 158.412 135.298 155.083 139.971 152.19C141.787 151.061 143.713 150.06 145.576 149.088C147.642 148.006 149.784 146.888 151.768 145.608C155.877 142.954 158.304 139.986 158.973 136.791C159.241 135.516 159.235 134.224 159.229 132.856C159.229 131.844 159.218 130.79 159.34 129.76C159.788 125.884 162.139 122.217 165.48 120.198C167.04 119.249 168.78 118.65 170.468 118.068C171.44 117.736 172.441 117.387 173.39 116.985C181.508 113.511 186.851 104.6 186.089 95.7945L186.857 95.7305C187.649 104.856 182.114 114.093 173.692 117.695C172.72 118.114 171.702 118.463 170.718 118.801C169.071 119.365 167.372 119.953 165.882 120.855C162.745 122.759 160.533 126.204 160.108 129.847C159.992 130.837 159.998 131.861 160.004 132.85C160.009 134.195 160.021 135.592 159.736 136.948C159.02 140.352 156.482 143.478 152.193 146.254C150.179 147.552 148.026 148.681 145.942 149.769C144.092 150.735 142.183 151.731 140.39 152.842C135.862 155.647 132.865 158.854 131.486 162.369C130.572 164.692 130.316 167.264 130.06 169.743C129.996 170.36 129.937 170.977 129.862 171.588C129.53 174.423 128.867 178.014 126.649 180.604C125.252 182.239 122.948 183.42 120.701 183.42L120.695 183.426Z" fill="#24285B"/>
<path d="M121.207 181.284C120.195 180.993 106.04 176.372 106.04 176.372L104.742 172.141H91.1644L90.1517 175.219L88.074 175.941V187.5H122.796C122.796 187.5 122.22 181.575 121.207 181.29V181.284Z" fill="#FFD200"/>
<path d="M188.58 98.647C188.58 98.647 183.813 99.52 182.079 96.9417C180.344 94.3634 178.302 80.8843 178.092 79.5341C177.882 78.1838 181.502 73.7083 182.725 74.5754C183.947 75.4426 186.304 80.2034 185.344 81.1404C184.383 82.0832 182.073 83.3753 182.073 83.3753C182.073 83.3753 182.795 91.337 184.383 92.4894C185.972 93.6476 188.574 91.6921 189.441 93.1762C190.308 94.6544 190.989 98.4491 188.574 98.6528L188.58 98.647Z" fill="#FFD200"/>
<path d="M119.135 94.7425C134.268 94.7425 146.536 82.4749 146.536 67.342C146.536 52.2091 134.268 39.9414 119.135 39.9414C104.003 39.9414 91.7349 52.2091 91.7349 67.342C91.7349 82.4749 104.003 94.7425 119.135 94.7425Z" fill="#E6E6E6"/>
<path d="M119.136 84.8298C128.795 84.8298 136.625 76.9996 136.625 67.3407C136.625 57.6817 128.795 49.8516 119.136 49.8516C109.477 49.8516 101.646 57.6817 101.646 67.3407C101.646 76.9996 109.477 84.8298 119.136 84.8298Z" fill="white"/>
<path d="M111.796 72.8342C111.284 72.8342 110.784 72.5607 110.522 72.0835C110.132 71.3792 110.388 70.4946 111.092 70.1047L117.68 66.4788V56.4277C117.68 55.6245 118.332 54.9727 119.135 54.9727C119.938 54.9727 120.59 55.6245 120.59 56.4277V67.3343C120.59 67.864 120.299 68.3528 119.84 68.6089L112.495 72.6538C112.274 72.776 112.029 72.8342 111.796 72.8342Z" fill="#A5A5A5"/>
</svg>
