<svg width="180" height="100" viewBox="0 0 180 100" fill="none" xmlns="http://www.w3.org/2000/svg">
<path d="M140.873 66.2835C134.671 66.2835 129.821 61.9499 129.821 54.6346C129.821 47.3988 134.87 42.9062 140.197 42.9062C146.32 42.9062 149.501 47.3988 149.501 53.5612C149.501 54.6346 149.381 55.7081 149.222 56.2249H135.506C135.983 59.8826 138.369 61.7909 141.668 61.7909C143.497 61.7909 145.088 61.2343 146.678 60.2404L148.666 63.8185C146.479 65.3293 143.656 66.2835 140.873 66.2835ZM135.427 52.3685H144.491C144.491 49.3469 143.139 47.4386 140.277 47.4386C137.931 47.4386 135.864 49.1084 135.427 52.3685Z" fill="#224A99"/>
<path d="M124.157 66.2828C120.101 66.2828 118.67 63.6191 118.67 59.4844V34H124.475V59.7627C124.475 61.0746 125.111 61.512 125.667 61.512C125.906 61.512 126.065 61.512 126.463 61.4325L127.178 65.766C126.502 66.0443 125.508 66.2828 124.157 66.2828Z" fill="#224A99"/>
<path d="M104.257 66.2828C102.269 66.2828 100.122 65.2491 98.2934 63.3806H98.1741L97.6573 65.7262H93.0852V34H98.8897V41.9912L98.7705 45.5693C100.52 43.9791 102.746 42.9056 104.933 42.9056C110.419 42.9056 113.719 47.3982 113.719 54.1966C113.719 61.8698 109.147 66.2828 104.257 66.2828ZM102.945 61.4722C105.648 61.4722 107.716 59.1663 107.716 54.3159C107.716 50.0619 106.364 47.7162 103.303 47.7162C101.792 47.7162 100.44 48.4716 98.8897 50.0221V59.8024C100.281 61.0349 101.752 61.4722 102.945 61.4722Z" fill="#224A99"/>
<path d="M73.6196 53.601H80.6168L79.7422 50.3807C78.8278 47.3194 78.0326 43.94 77.158 40.7594H76.9989C76.2436 43.9798 75.3689 47.3194 74.4942 50.3807L73.6196 53.601ZM83.9564 65.7269L81.8891 58.1731H72.3474L70.28 65.7269H64.3164L73.7389 36.3066H80.6566L90.1188 65.7269H83.9564Z" fill="#224A99"/>
<path d="M42.1455 65.7269V43.4628H46.9164L47.3139 46.4049H47.473C49.4211 44.4965 51.6872 42.9062 54.7088 42.9062C59.5194 42.9062 61.5868 46.2459 61.5868 51.8516V65.7269H55.7425V52.5672C55.7425 49.1481 54.7883 47.9157 52.6016 47.9157C50.7728 47.9157 49.6199 48.7903 47.9501 50.4204V65.7269H42.1455Z" fill="#224A99"/>
<path d="M29.5005 65.7269V36.3066H35.3846V65.7269H29.5005Z" fill="#224A99"/>
</svg>
