<svg width="291" height="269" viewBox="0 0 291 269" fill="none" xmlns="http://www.w3.org/2000/svg">
<path opacity="0.3" d="M21.726 72.5416C8.1421 105.5 19.98 143.272 49.0858 163.852C68.6061 177.657 98.3521 188.587 142.747 184.751C271.718 173.6 284.045 119.783 270.671 77.8669C257.296 35.9512 223.418 19.824 154.765 20.7145C100.593 21.4187 41.5373 24.4626 21.726 72.5358V72.5416Z" fill="#BCBCBC"/>
<path d="M276.409 196.207H14.5967V270.464H276.409V196.207Z" fill="#E6E6E6"/>
<path d="M276.409 196.207H14.5967V207.015H276.409V196.207Z" fill="#A5A5A5"/>
<path d="M106.36 196.147L92.6835 122.204C92.6835 122.204 80.7758 96.474 95.3316 82.8028C109.887 69.1258 106.36 109.074 115.62 108.731C124.88 108.388 127.97 93.4418 132.382 101.799C136.793 110.151 118.268 122.21 118.268 122.21L140.052 196.153H106.355L106.36 196.147Z" fill="#F4A28C"/>
<path d="M100.185 196.151L91.3623 141.897L128.855 138.504L145.616 196.151H100.185Z" fill="#FFD200"/>
<path d="M170.747 196.141L158.688 110.139C158.688 110.139 149.935 103.457 148.701 95.5888C148.078 91.6254 152.525 88.8143 155.836 91.0783C159.253 93.4179 163.606 94.9486 165.742 89.8445C169.566 80.7303 162.483 68.3745 173.657 66.9078C184.832 65.4354 196.029 91.3169 176.62 107.782L198.677 196.135H170.741L170.747 196.141Z" fill="#9B6448"/>
<path d="M163.984 196.139L158.985 158.658L194.272 156.895L203.979 196.139H163.984Z" fill="#68E1FD"/>
<path d="M161.581 158.53L158.985 141.309L184.296 138.492L188.952 157.163L161.581 158.53Z" fill="#68E1FD"/>
<path opacity="0.46" d="M161.581 158.53L158.985 141.309L184.296 138.492L188.952 157.163L161.581 158.53Z" fill="white"/>
<path d="M48.859 196.384L35.1413 122.196C35.1413 122.196 23.2335 96.4662 37.7894 82.795C52.3452 69.118 48.8183 109.066 58.0779 108.723C67.3375 108.38 70.4279 93.4339 74.8395 101.791C79.251 110.143 60.726 122.202 60.726 122.202L82.5859 196.39H48.8648L48.859 196.384Z" fill="#F2BF8C"/>
<path d="M64.3624 123.539L33.1301 128.363L34.8447 139.464L66.077 134.64L64.3624 123.539Z" fill="#24285B"/>
<path d="M44.4241 139.159C48.6252 139.159 52.0309 135.753 52.0309 131.552C52.0309 127.351 48.6252 123.945 44.4241 123.945C40.223 123.945 36.8174 127.351 36.8174 131.552C36.8174 135.753 40.223 139.159 44.4241 139.159Z" fill="white"/>
<path d="M225.455 196.144L216.929 113.965C216.929 113.965 206.342 109.851 206.639 102.203C206.936 94.5558 213.111 84.557 221.637 85.4417C230.164 86.3263 234.243 87.8104 235.128 77.2238C236.013 66.6372 250.016 68.6801 246.046 79.9418C244.551 84.1845 241.484 99.0314 239.72 107.843C238.841 112.243 238.894 116.771 239.871 121.147L256.633 196.15H225.461L225.455 196.144Z" fill="#F4A28C"/>
<path opacity="0.08" d="M232.672 93.1758C232.672 93.1758 238.684 100.87 231.63 109.251C224.576 117.631 235.064 196.132 235.064 196.132H225.461L216.935 113.953L232.678 93.1758H232.672Z" fill="#000001"/>
<path d="M222.417 111.577C219.816 114.161 215.806 114.662 212.64 112.811C208.961 110.658 204.852 107.218 205.015 102.638C205.312 94.4025 213.344 83.1176 221.632 84.9916C229.919 86.8656 234.866 90.8756 231.921 98.6686C230.193 103.255 225.764 108.243 222.411 111.577H222.417Z" fill="#F4A28C"/>
<path d="M222.51 196.139L218.896 173.068L254.864 171.602L260.451 196.139H222.51Z" fill="#FFD200"/>
</svg>
